<svg width="207" height="186" viewBox="0 0 207 186" fill="none" xmlns="http://www.w3.org/2000/svg">
<path d="M23.9248 116.58L30.1406 122.042C31.9553 123.637 34.1156 125.428 36.6328 127.421L37.7334 128.287C40.5026 130.454 43.6472 132.566 47.1826 134.615C50.549 136.502 54.2118 138.115 58.1855 139.442C61.9094 140.601 65.9093 141.2 70.2197 141.2V148.2L69.2852 148.191C64.6289 148.109 60.2071 147.412 56.0195 146.1C51.8945 144.725 48.0332 143.057 44.4355 141.096L43.7197 140.7C40.3948 138.775 37.3504 136.773 34.5869 134.695L33.4189 133.8C30.3524 131.4 27.7194 129.233 25.5195 127.3L8.91895 154.1C11.0522 156.166 13.9526 158.567 17.6191 161.3C21.2858 164.033 25.6531 166.7 30.7197 169.3C35.8529 171.833 41.6527 173.933 48.1191 175.6C54.1816 177.225 60.7716 178.088 67.8887 178.189L69.3193 178.2C81.3193 178.2 91.8193 176.233 100.819 172.3C103.359 171.171 105.739 169.901 107.96 168.491V175H110.746C108.509 176.36 106.147 177.592 103.662 178.696L103.623 178.714C93.5659 183.109 82.0754 185.2 69.3193 185.2C61.1526 185.2 53.4905 184.279 46.373 182.378C39.9438 180.721 34.0364 178.635 28.6846 176.092L27.6211 175.577L27.5234 175.528C22.5242 172.963 18.0698 170.284 14.2012 167.476L13.4355 166.912C9.87869 164.261 6.87856 161.809 4.51367 159.572L4.04883 159.128L0 155.206L23.9248 116.58ZM87.1191 128.6C87.1191 125.659 86.502 123.654 85.6426 122.244L85.623 122.213L85.6045 122.181C84.6302 120.544 83.1007 118.871 80.7832 117.233L80.3096 116.906L80.2402 116.86L80.1729 116.812C77.6074 114.995 74.3297 113.133 70.2666 111.257L69.4434 110.882L69.3887 110.857L69.334 110.832C64.7489 108.671 59.4853 106.301 53.5361 103.723L53.4971 103.706L53.459 103.688C48.7086 101.561 44.1604 99.1463 39.8184 96.4414L39.7607 96.4062L39.7041 96.3691C35.5102 93.6431 31.7174 90.5065 28.3418 86.959L27.6719 86.2441C24.0082 82.2686 21.082 77.7788 18.9062 72.8057L18.8799 72.7461L18.8545 72.6855C16.6559 67.3926 15.6191 61.6297 15.6191 55.5C15.6191 48.203 17.0853 41.1823 20.0049 34.498C22.912 27.8423 27.0423 21.9274 32.3418 16.7793L32.3594 16.7617L32.3779 16.7441C37.7824 11.5681 44.1326 7.50483 51.3506 4.52832L51.3623 4.52344L51.374 4.51953C58.852 1.46729 67.0329 3.18415e-07 75.8193 0C82.0348 0 88.2291 0.778096 94.3906 2.31836L95.623 2.63672C102.05 4.35065 108.098 6.61357 113.75 9.43945L113.47 10H107.96V14.4307C103.856 12.5601 99.5164 10.9849 94.9395 9.70605L93.8193 9.40039C88.1943 7.9004 82.5693 7.10352 76.9443 7.00977L75.8193 7C67.8194 7 60.5528 8.33338 54.0195 11C47.553 13.6666 41.953 17.2666 37.2197 21.7998C32.5531 26.3331 28.9523 31.4998 26.4189 37.2998L25.959 38.3906C23.7324 43.8594 22.6191 49.5625 22.6191 55.5L22.6299 56.4941C22.7354 61.4355 23.6318 65.9375 25.3193 70C27.186 74.2667 29.686 78.1 32.8193 81.5C35.9527 84.9 39.5195 87.9 43.5195 90.5C47.5861 93.0333 51.8527 95.2998 56.3193 97.2998C62.3193 99.8998 67.6527 102.3 72.3193 104.5C77.0527 106.633 81.0197 108.833 84.2197 111.1C87.4862 113.3 89.9525 115.8 91.6191 118.6C93.2858 121.333 94.1191 124.666 94.1191 128.6C94.1191 132.933 93.0862 136.567 91.0195 139.5C88.9529 142.367 86.1195 144.533 82.5195 146C78.9863 147.467 74.8862 148.2 70.2197 148.2V141.2C74.1623 141.2 77.3182 140.58 79.8359 139.535L79.8574 139.526L79.8779 139.518C82.3747 138.5 84.1006 137.116 85.3223 135.432C86.3837 133.908 87.1191 131.769 87.1191 128.6ZM54.2197 54.7998C54.2198 51.3999 55.086 48.3329 56.8193 45.5996C58.5069 42.9747 60.8389 40.8476 63.8154 39.2188L64.4189 38.9004C67.7523 37.2337 71.7862 36.4004 76.5195 36.4004L77.3057 36.4072C81.2354 36.4775 85.1064 37.0752 88.9189 38.2002C93.0523 39.4002 96.9195 41 100.52 43C103.216 44.4218 105.696 45.988 107.96 47.6982V56.8037L105.754 54.9062C103.474 52.9448 100.851 51.143 97.8584 49.5156L97.2549 49.1924L97.1865 49.1562L97.1201 49.1191C94.1939 47.4935 91.0414 46.1591 87.6494 45.125L86.9678 44.9229L86.9531 44.918L86.9385 44.9141C83.5089 43.9021 80.0423 43.4004 76.5195 43.4004C72.6056 43.4004 69.7112 44.0873 67.5791 45.1465C65.3121 46.3072 63.7683 47.7365 62.708 49.3857C61.7373 50.9309 61.2198 52.674 61.2197 54.7998C61.2197 56.5627 61.558 57.6928 61.9521 58.4365C62.5687 59.3882 63.4792 60.3541 64.834 61.2939C66.5499 62.4129 68.7191 63.5802 71.3965 64.7734C73.6073 65.7067 75.9862 66.6969 78.5342 67.7432L81.1602 68.8174L81.2021 68.834L81.2432 68.8516C88.1209 71.7568 94.4597 74.6496 100.253 77.5312L102.703 78.7656C104.517 79.6917 106.269 80.6538 107.96 81.6484V89.8887C105.693 88.3963 103.268 86.9676 100.684 85.6045L99.5195 85C93.2529 81.8 86.2528 78.5665 78.5195 75.2998C74.9195 73.8331 71.6191 72.4669 68.6191 71.2002C65.6192 69.8669 63.0523 68.4996 60.9189 67.0996C58.7858 65.633 57.1189 63.9332 55.9189 62C54.7857 60 54.2197 57.5997 54.2197 54.7998ZM113.75 9.43945C114.121 9.62476 114.488 9.81176 114.853 10H113.47L113.75 9.43945Z" fill="black"/>
<path d="M199.96 146.6H140.36V10H107.96V14.4307C105.699 13.3998 103.365 12.4595 100.96 11.6084V3H147.36V139.6H206.96V182H100.96V172.235C103.447 171.122 105.78 169.875 107.96 168.491V175H199.96V146.6ZM100.96 43.2354C103.487 44.5943 105.82 46.0816 107.96 47.6982V89.8887C105.774 88.4497 103.441 87.0707 100.96 85.752V43.2354Z" fill="black"/>
</svg>
