<svg width="176" height="172" viewBox="0 0 176 172" fill="none" xmlns="http://www.w3.org/2000/svg">
<path d="M115.359 171.2C107.693 171.2 100.626 170.333 94.1594 168.6C87.6927 166.933 81.8927 164.833 76.7594 162.3C71.6927 159.7 67.3261 157.033 63.6594 154.3C59.9927 151.567 57.0927 149.167 54.9594 147.1L71.5594 120.3C73.7594 122.233 76.3927 124.4 79.4594 126.8C82.526 129.2 85.9594 131.5 89.7594 133.7C93.5594 135.833 97.6594 137.633 102.059 139.1C106.526 140.5 111.259 141.2 116.259 141.2C120.926 141.2 125.026 140.467 128.559 139C132.159 137.533 134.993 135.367 137.059 132.5C139.126 129.567 140.159 125.933 140.159 121.6C140.159 117.667 139.326 114.333 137.659 111.6C135.993 108.8 133.526 106.3 130.259 104.1C127.059 101.833 123.093 99.6333 118.359 97.5C113.693 95.3 108.359 92.9 102.359 90.3C97.8927 88.3 93.6261 86.0333 89.5594 83.5C85.5594 80.9 81.9927 77.9 78.8594 74.5C75.726 71.1 73.2261 67.2667 71.3594 63C69.5594 58.6667 68.6594 53.8333 68.6594 48.5C68.6594 42.1667 69.926 36.1 72.4594 30.3C74.9927 24.5 78.5927 19.3333 83.2594 14.8C87.9927 10.2667 93.5927 6.66667 100.059 4C106.593 1.33333 113.859 0 121.859 0C127.859 0 133.859 0.799998 139.859 2.39999C145.859 4 151.459 6.1 156.659 8.7C161.859 11.3 166.259 14.1333 169.859 17.2L156.359 42.6C153.493 40.1333 150.226 37.9333 146.559 36C142.959 34 139.093 32.4 134.959 31.2C130.893 30 126.759 29.4 122.559 29.4C117.826 29.4 113.793 30.2333 110.459 31.9C107.193 33.5667 104.659 35.8 102.859 38.6C101.126 41.3333 100.259 44.4 100.259 47.8C100.259 50.6 100.826 53 101.959 55C103.159 56.9333 104.826 58.6333 106.959 60.1C109.093 61.5 111.659 62.8667 114.659 64.2C117.659 65.4667 120.959 66.8333 124.559 68.3C132.293 71.5667 139.293 74.8 145.559 78C151.826 81.2 157.193 84.7667 161.659 88.7C166.126 92.5667 169.526 97.1 171.859 102.3C174.259 107.5 175.459 113.7 175.459 120.9C175.459 131.433 172.926 140.467 167.859 148C162.859 155.533 155.859 161.3 146.859 165.3C137.859 169.233 127.359 171.2 115.359 171.2Z" fill="#373737"/>
<path d="M0 168V3H32.4V139.6H92V168H0Z" fill="#373737"/>
</svg>
